# xmcd
#
# Track frame offsets:
#	150
#	19078
#	37881
#	54932
#	74036
#	94012
#	109690
#	124200
#	139799
#	153200
#	170043
#	188721
#
# Disc length: 2708 seconds
#
# Revision: 0
# Processed by: cddbd v1.5.1PL0 Copyright (c) Steve Scherf et al.
# Submitted via: dBpowerAMP V4.0
#
DISCID=9e0a920c
DTITLE=Charlie Mars - Charlie Mars
DYEAR=2004
DGENRE=
TTITLE0=Gather The Horses
TTITLE1=Simple Things
TTITLE2=Close to Home
TTITLE3=White Out
TTITLE4=When the Sun Goes Down
TTITLE5=Silver Buttons
TTITLE6=Try So Hard
TTITLE7=One Horse Town
TTITLE8=Captain, Captain
TTITLE9=Bay Springs Road
TTITLE10=How Could You
TTITLE11=Nobody Cries
EXTD=
EXTT0=
EXTT1=
EXTT2=
EXTT3=
EXTT4=
EXTT5=
EXTT6=
EXTT7=
EXTT8=
EXTT9=
EXTT10=
EXTT11=
PLAYORDER=
